{"title":"Akaashvani 2013 Hindi DVDScr XviD Sample Included ~ rDX","uid":8100594,"size":740831946,"categoryP":"video","categoryS":"movies","magnet":"?xt=urn:btih:c0464fb196b369c406ef9dcc9cd1832c7206b81d&amp;dn=Akaashvani+2013+Hindi+DVDScr+XviD+Sample+Included+%7E+rDX&amp;tr=udp%3A%2F%2Ftracker.openbittorrent.com%3A80&amp;tr=udp%3A%2F%2Fopen.demonii.com%3A1337&amp;tr=udp%3A%2F%2Ftracker.coppersurfer.tk%3A6969&amp;tr=udp%3A%2F%2Fexodus.desync.com%3A6969","seeders":1,"leechers":1,"uploader":"basicssom","files":4,"time":1359960409,"description":"Akaashvani 2013 Hindi Movies DVDScr XviD Sample Included ~ rDX\n\nScreen Shots :\n &lt;a href=&quot;\nhttp://myimghost.no-ip.biz/Akaashvani.html&quot; rel=&quot;nofollow&quot; target=&quot;_NEW&quot;&gt;\nhttp://myimghost.no-ip.biz/Akaashvani.html&lt;/a&gt;\n &lt;a href=&quot;\nhttp://myimghost.cwahi.net/Akaashvani.html&quot; rel=&quot;nofollow&quot; target=&quot;_NEW&quot;&gt;\nhttp://myimghost.cwahi.net/Akaashvani.html&lt;/a&gt;\n\n\nFormat                                   : AVI\nFormat/Info                              : Audio Video Interleave\nFile size                                : 688 MiB\nDuration                                 : 2h 13mn\nOverall bit rate                         : 722 Kbps\nWriting library                          : MPlayer\n\nVideo\nID                                       : 0\nFormat                                   : MPEG-4 Visual\nFormat profile                           : Advanced Simple@L5\nFormat settings, BVOP                    : 3\nFormat settings, QPel                    : No\nFormat settings, GMC                     : No warppoints\nFormat settings, Matrix                  : Custom\nCodec ID                                 : XVID\nCodec ID/Hint                            : XviD\nDuration                                 : 2h 13mn\nBit rate                                 : 637 Kbps\nWidth                                    : 608 pixels\nHeight                                   : 256 pixels\nDisplay aspect ratio                     : 2.40:1\nFrame rate                               : 23.976 fps\nColor space                              : YUV\nChroma subsampling                       : 4:2:0\nBit depth                                : 8 bits\nScan type                                : Progressive\nCompression mode                         : Lossy\nBits/(Pixel*Frame)                       : 0.171\nStream size                              : 607 MiB (88%)\nWriting library                          : XviD 1.2.1 (UTC 2008-12-04)\n\nAudio\nID                                       : 1\nFormat                                   : MPEG Audio\nFormat version                           : Version 1\nFormat profile                           : Layer 3\nMode                                     : Joint stereo\nMode extension                           : Intensity Stereo + MS Stereo\nCodec ID                                 : 55\nCodec ID/Hint                            : MP3\nDuration                                 : 2h 13mn\nBit rate mode                            : Constant\nBit rate                                 : 80.0 Kbps\nChannel(s)                               : 2 channels\nSampling rate                            : 32.0 KHz\nCompression mode                         : Lossy\nStream size                              : 76.2 MiB (11%)\nAlignment                                : Aligned on interleaves\nInterleave, duration                     : 468 ms (11.22 video frames)\nInterleave, preload duration             : 936 ms","torrent":{"xt":"urn:btih:c0464fb196b369c406ef9dcc9cd1832c7206b81d","amp;dn":"Akaashvani+2013+Hindi+DVDScr+XviD+Sample+Included+%7E+rDX","amp;tr":["udp%3A%2F%2Ftracker.openbittorrent.com%3A80","udp%3A%2F%2Fopen.demonii.com%3A1337","udp%3A%2F%2Ftracker.coppersurfer.tk%3A6969","udp%3A%2F%2Fexodus.desync.com%3A6969"],"infoHash":"c0464fb196b369c406ef9dcc9cd1832c7206b81d","infoHashBuffer":{"type":"Buffer","data":[192,70,79,177,150,179,105,196,6,239,157,204,156,209,131,44,114,6,184,29]},"announce":[],"urlList":[]}}